<?xml version="1.0" encoding="UTF-8"?>
<svg xmlns="http://www.w3.org/2000/svg" xmlns:xlink="http://www.w3.org/1999/xlink" width="810pt" height="809.999993pt" viewBox="0 0 810 809.999993" version="1.2">
<g id="surface1">
<path style=" stroke:none;fill-rule:nonzero;fill:rgb(100%,100%,100%);fill-opacity:1;" d="M 734.371094 509.003906 C 737.683594 509.003906 740.425781 506.324219 740.425781 503.015625 C 740.425781 499.703125 737.800781 497.027344 734.5 497.027344 L 734.371094 497.027344 C 731.070312 497.027344 728.378906 499.703125 728.378906 503.015625 C 728.378906 506.324219 731.070312 509.003906 734.371094 509.003906 Z M 734.371094 509.003906 "/>
<path style=" stroke:none;fill-rule:nonzero;fill:rgb(100%,100%,100%);fill-opacity:1;" d="M 147.042969 497.027344 C 150.359375 497.027344 153.097656 494.347656 153.097656 491.039062 C 153.097656 487.730469 150.472656 485.054688 147.175781 485.054688 L 147.042969 485.054688 C 143.746094 485.054688 141.050781 487.730469 141.050781 491.039062 C 141.050781 494.347656 143.746094 497.027344 147.042969 497.027344 Z M 147.042969 497.027344 "/>
<path style=" stroke:none;fill-rule:nonzero;fill:rgb(100%,100%,100%);fill-opacity:1;" d="M 431.660156 571.144531 C 608.773438 571.144531 757.398438 545.253906 759.761719 544.835938 C 763.011719 544.25 765.191406 541.148438 764.605469 537.886719 C 764.03125 534.636719 760.929688 532.496094 757.652344 533.046875 C 753.917969 533.722656 380.332031 598.757812 113.121094 521.210938 C 109.914062 520.253906 106.613281 522.113281 105.6875 525.292969 C 104.765625 528.476562 106.601562 531.796875 109.773438 532.71875 C 210.535156 561.953125 326.164062 571.144531 431.660156 571.144531 Z M 431.660156 571.144531 "/>
<path style=" stroke:none;fill-rule:nonzero;fill:rgb(100%,100%,100%);fill-opacity:1;" d="M 431.660156 595.097656 C 608.773438 595.097656 757.398438 569.207031 759.761719 568.785156 C 763.011719 568.199219 765.191406 565.101562 764.605469 561.835938 C 764.03125 558.574219 760.929688 556.492188 757.652344 556.996094 C 753.917969 557.664062 380.332031 622.707031 113.121094 545.160156 C 109.914062 544.214844 106.613281 546.074219 105.6875 549.242188 C 104.765625 552.425781 106.601562 555.746094 109.773438 556.667969 C 210.535156 585.90625 326.164062 595.097656 431.660156 595.097656 Z M 431.660156 595.097656 "/>
<path style=" stroke:none;fill-rule:nonzero;fill:rgb(100%,100%,100%);fill-opacity:1;" d="M 407.195312 487.53125 C 591.121094 487.53125 745.433594 461.417969 747.738281 461.019531 C 751.003906 460.445312 753.195312 457.347656 752.632812 454.097656 C 752.058594 450.832031 748.933594 448.667969 745.703125 449.207031 C 742.238281 449.804688 397.035156 508.171875 124.699219 449.265625 C 121.421875 448.5625 118.285156 450.621094 117.582031 453.851562 C 116.878906 457.074219 118.925781 460.269531 122.167969 460.960938 C 214.210938 480.886719 314.492188 487.53125 407.195312 487.53125 Z M 407.195312 487.53125 "/>
<path style=" stroke:none;fill-rule:nonzero;fill:rgb(100%,100%,100%);fill-opacity:1;" d="M 758.707031 544.929688 C 760.898438 544.929688 763.015625 543.710938 764.070312 541.617188 L 788.042969 493.71875 C 789.199219 491.414062 788.742188 488.632812 786.917969 486.804688 L 750.957031 450.882812 C 748.617188 448.542969 744.824219 448.542969 742.484375 450.882812 C 740.140625 453.21875 740.140625 457.007812 742.484375 459.347656 L 775.386719 492.222656 L 753.347656 536.261719 C 751.871094 539.222656 753.066406 542.8125 756.027344 544.296875 C 756.894531 544.730469 757.804688 544.929688 758.707031 544.929688 Z M 758.707031 544.929688 "/>
<path style=" stroke:none;fill-rule:nonzero;fill:rgb(100%,100%,100%);fill-opacity:1;" d="M 111.449219 532.953125 C 112.597656 532.953125 113.753906 532.625 114.773438 531.949219 C 117.523438 530.113281 118.273438 526.390625 116.4375 523.644531 L 92.464844 487.71875 C 90.625 484.96875 86.878906 484.246094 84.152344 486.058594 C 81.402344 487.894531 80.652344 491.613281 82.492188 494.359375 L 106.464844 530.289062 C 107.621094 532.015625 109.515625 532.953125 111.449219 532.953125 Z M 111.449219 532.953125 "/>
<path style=" stroke:none;fill-rule:nonzero;fill:rgb(100%,100%,100%);fill-opacity:1;" d="M 87.476562 497.027344 C 89.007812 497.027344 90.542969 496.441406 91.714844 495.273438 L 127.671875 459.347656 C 130.011719 457.007812 130.011719 453.21875 127.671875 450.882812 C 125.332031 448.542969 121.539062 448.542969 119.195312 450.882812 L 83.238281 486.804688 C 80.898438 489.144531 80.898438 492.9375 83.238281 495.273438 C 84.410156 496.441406 85.945312 497.027344 87.476562 497.027344 Z M 87.476562 497.027344 "/>
<path style=" stroke:none;fill-rule:nonzero;fill:rgb(100%,100%,100%);fill-opacity:1;" d="M 159.394531 449.128906 C 160.589844 449.128906 161.78125 448.777344 162.824219 448.050781 C 374.492188 300.378906 602.933594 208.890625 605.214844 207.988281 C 608.292969 206.761719 609.792969 203.289062 608.574219 200.214844 C 607.34375 197.128906 603.859375 195.675781 600.789062 196.859375 C 598.496094 197.769531 368.753906 289.769531 155.964844 438.226562 C 153.25 440.121094 152.582031 443.851562 154.480469 446.5625 C 155.648438 448.238281 157.507812 449.128906 159.394531 449.128906 Z M 159.394531 449.128906 "/>
<path style=" stroke:none;fill-rule:nonzero;fill:rgb(100%,100%,100%);fill-opacity:1;" d="M 207.339844 449.128906 C 208.34375 449.128906 209.355469 448.878906 210.277344 448.355469 C 211.261719 447.804688 308.230469 393.265625 334.855469 378.777344 C 356.640625 366.886719 376.199219 380.449219 406.84375 411.425781 C 408.679688 413.285156 411.539062 413.726562 413.84375 412.546875 L 693.519531 269.152344 C 695.605469 268.078125 696.867188 265.902344 696.777344 263.5625 C 696.691406 261.707031 694.480469 217.78125 665.238281 198.53125 C 648.574219 187.539062 626.90625 186.976562 600.886719 196.824219 C 597.785156 197.992188 596.226562 201.453125 597.398438 204.542969 C 598.578125 207.628906 602.054688 209.160156 605.125 208.027344 C 627.351562 199.605469 645.355469 199.769531 658.605469 208.492188 C 678.316406 221.441406 683.292969 250.066406 684.460938 260.335938 L 412.265625 399.886719 C 385.636719 373.304688 359.089844 351.960938 329.125 368.253906 C 302.421875 382.789062 205.371094 437.371094 204.402344 437.921875 C 201.511719 439.546875 200.496094 443.195312 202.121094 446.074219 C 203.21875 448.027344 205.253906 449.128906 207.339844 449.128906 Z M 207.339844 449.128906 "/>
<path style=" stroke:none;fill-rule:nonzero;fill:rgb(100%,100%,100%);fill-opacity:1;" d="M 411.105469 389.242188 C 412.03125 389.242188 412.96875 389.03125 413.84375 388.578125 L 669.769531 256.863281 C 672.71875 255.355469 673.878906 251.742188 672.359375 248.804688 C 670.835938 245.859375 667.230469 244.699219 664.292969 246.21875 L 408.367188 377.9375 C 405.417969 379.441406 404.257812 383.058594 405.777344 385.992188 C 406.84375 388.0625 408.941406 389.242188 411.105469 389.242188 Z M 411.105469 389.242188 "/>
<path style=" stroke:none;fill-rule:nonzero;fill:rgb(100%,100%,100%);fill-opacity:1;" d="M 27.546875 580.855469 C 28.109375 580.855469 28.683594 580.769531 29.253906 580.605469 C 87.699219 563.242188 93.203125 529.246094 93.410156 527.808594 C 93.878906 524.535156 91.59375 521.503906 88.320312 521.039062 C 85.136719 520.605469 82.058594 522.824219 81.554688 526.054688 C 81.355469 527.273438 76.25 554.15625 25.835938 569.125 C 22.664062 570.074219 20.863281 573.40625 21.800781 576.574219 C 22.570312 579.167969 24.957031 580.855469 27.546875 580.855469 Z M 27.546875 580.855469 "/>
<path style=" stroke:none;fill-rule:nonzero;fill:rgb(100%,100%,100%);fill-opacity:1;" d="M 47.539062 582.792969 C 61.480469 582.792969 80.933594 580.429688 102.011719 570.691406 C 105.023438 569.296875 106.324219 565.742188 104.941406 562.738281 C 103.535156 559.730469 100 558.4375 96.980469 559.816406 C 60.601562 576.621094 29.324219 569.125 28.996094 569.054688 C 25.765625 568.273438 22.523438 570.199219 21.726562 573.414062 C 20.929688 576.621094 22.875 579.871094 26.089844 580.675781 C 26.773438 580.839844 34.894531 582.792969 47.539062 582.792969 Z M 47.539062 582.792969 "/>
</g>
</svg>
