<?xml version="1.0" encoding="UTF-8"?>
<svg xmlns="http://www.w3.org/2000/svg" xmlns:xlink="http://www.w3.org/1999/xlink" width="810pt" height="809.999993pt" viewBox="0 0 810 809.999993" version="1.2">
<defs>
<clipPath id="clip1">
  <path d="M 303 301.269531 L 508 301.269531 L 508 509 L 303 509 Z M 303 301.269531 "/>
</clipPath>
</defs>
<g id="surface1">
<path style=" stroke:none;fill-rule:nonzero;fill:rgb(100%,100%,100%);fill-opacity:1;" d="M 404.75 718.375 C 321.015625 718.375 242.171875 685.78125 183.007812 626.492188 C 123.714844 567.328125 91.125 488.484375 91.125 404.75 C 91.125 321.015625 123.714844 242.171875 183.007812 183.007812 C 242.171875 123.714844 321.015625 91.125 404.75 91.125 C 488.484375 91.125 567.328125 123.714844 626.492188 183.007812 C 685.78125 242.296875 718.375 321.015625 718.375 404.75 C 718.375 488.484375 685.78125 567.328125 626.492188 626.492188 C 567.328125 685.78125 488.484375 718.375 404.75 718.375 Z M 404.75 109.925781 C 326.03125 109.925781 251.949219 140.636719 196.292969 196.292969 C 140.636719 251.949219 109.925781 326.03125 109.925781 404.75 C 109.925781 483.46875 140.636719 557.550781 196.292969 613.207031 C 251.949219 668.859375 326.03125 699.570312 404.75 699.570312 C 483.46875 699.570312 557.550781 668.859375 613.207031 613.207031 C 668.859375 557.550781 699.570312 483.46875 699.570312 404.75 C 699.570312 326.03125 668.859375 251.949219 613.207031 196.292969 C 557.550781 140.636719 483.46875 109.925781 404.75 109.925781 Z M 404.75 109.925781 "/>
<g clip-path="url(#clip1)" clip-rule="nonzero">
<path style=" stroke:none;fill-rule:nonzero;fill:rgb(100%,100%,100%);fill-opacity:1;" d="M 411.09375 506.949219 C 410.972656 507.046875 410.847656 507.132812 410.726562 507.222656 C 410.609375 507.308594 410.5 507.394531 410.382812 507.476562 C 410.246094 507.570312 410.097656 507.648438 409.953125 507.734375 C 409.84375 507.800781 409.738281 507.867188 409.625 507.929688 C 409.484375 508.007812 409.335938 508.074219 409.1875 508.140625 C 409.066406 508.199219 408.949219 508.257812 408.824219 508.308594 C 408.683594 508.367188 408.539062 508.417969 408.394531 508.46875 C 408.261719 508.515625 408.128906 508.566406 407.988281 508.609375 C 407.847656 508.652344 407.699219 508.683594 407.554688 508.722656 C 407.414062 508.757812 407.277344 508.796875 407.132812 508.824219 C 406.964844 508.859375 406.792969 508.878906 406.625 508.902344 C 406.503906 508.917969 406.382812 508.941406 406.257812 508.957031 C 405.664062 509.015625 405.066406 509.015625 404.472656 508.957031 C 404.347656 508.941406 404.226562 508.917969 404.105469 508.902344 C 403.933594 508.878906 403.765625 508.859375 403.597656 508.824219 C 403.453125 508.796875 403.3125 508.757812 403.171875 508.722656 C 403.027344 508.683594 402.882812 508.652344 402.738281 508.609375 C 402.597656 508.566406 402.464844 508.515625 402.328125 508.464844 C 402.1875 508.414062 402.042969 508.367188 401.902344 508.3125 C 401.777344 508.257812 401.65625 508.195312 401.535156 508.140625 C 401.390625 508.070312 401.246094 508.007812 401.101562 507.929688 C 400.988281 507.871094 400.878906 507.800781 400.765625 507.730469 C 400.625 507.648438 400.480469 507.566406 400.34375 507.476562 C 400.222656 507.394531 400.109375 507.304688 399.992188 507.21875 C 399.875 507.128906 399.75 507.046875 399.632812 506.949219 C 399.4375 506.789062 399.25 506.617188 399.070312 506.4375 C 399.039062 506.410156 399.003906 506.382812 398.976562 506.351562 L 305.722656 412.996094 C 302.199219 409.460938 302.199219 403.738281 305.722656 400.203125 C 309.253906 396.671875 314.972656 396.671875 318.5 400.203125 L 396.332031 478.125 L 396.332031 140.042969 C 396.332031 135.050781 400.375 131 405.363281 131 C 410.351562 131 414.398438 135.050781 414.398438 140.042969 L 414.398438 478.125 L 492.230469 400.203125 C 495.757812 396.671875 501.476562 396.671875 505.003906 400.203125 C 506.765625 401.972656 507.648438 404.285156 507.648438 406.597656 C 507.648438 408.914062 506.765625 411.226562 505.003906 412.992188 L 411.75 506.351562 C 411.710938 506.390625 411.667969 506.425781 411.625 506.464844 C 411.453125 506.632812 411.277344 506.796875 411.09375 506.949219 Z M 411.09375 506.949219 "/>
</g>
</g>
</svg>
