<?xml version="1.0" encoding="UTF-8"?>
<svg xmlns="http://www.w3.org/2000/svg" xmlns:xlink="http://www.w3.org/1999/xlink" width="810pt" height="809.999993pt" viewBox="0 0 810 809.999993" version="1.2">
<defs>
<clipPath id="clip1">
  <path d="M 81 186.035156 L 729 186.035156 L 729 502.535156 L 81 502.535156 Z M 81 186.035156 "/>
</clipPath>
<clipPath id="clip2">
  <path d="M 81 489 L 94.5 489 L 94.5 807 L 81 807 Z M 81 489 "/>
</clipPath>
<clipPath id="clip3">
  <path d="M 715.230469 489 L 728.730469 489 L 728.730469 807 L 715.230469 807 Z M 715.230469 489 "/>
</clipPath>
<clipPath id="clip4">
  <path d="M 307 445.140625 L 503.617188 445.140625 L 503.617188 669.390625 L 307 669.390625 Z M 307 445.140625 "/>
</clipPath>
</defs>
<g id="surface1">
<g clip-path="url(#clip1)" clip-rule="nonzero">
<path style=" stroke:none;fill-rule:nonzero;fill:rgb(100%,100%,100%);fill-opacity:1;" d="M 405 186.035156 C 226.351562 186.035156 81 331.386719 81 510.035156 C 81 688.699219 226.351562 834.035156 405 834.035156 C 583.664062 834.035156 729 688.699219 729 510.035156 C 729 331.386719 583.664062 186.035156 405 186.035156 Z M 405 820.8125 C 233.636719 820.8125 94.222656 681.398438 94.222656 510.035156 C 94.222656 338.671875 233.636719 199.261719 405 199.261719 C 576.363281 199.261719 715.777344 338.671875 715.777344 510.035156 C 715.777344 681.398438 576.363281 820.8125 405 820.8125 Z M 405 820.8125 "/>
</g>
<g clip-path="url(#clip2)" clip-rule="nonzero">
<path style=" stroke:none;fill-rule:nonzero;fill:rgb(100%,100%,100%);fill-opacity:1;" d="M 81 489.648438 L 81 806.347656 L 94.5 806.347656 L 94.5 489.648438 Z M 81 489.648438 "/>
</g>
<g clip-path="url(#clip3)" clip-rule="nonzero">
<path style=" stroke:none;fill-rule:nonzero;fill:rgb(100%,100%,100%);fill-opacity:1;" d="M 715.230469 489.648438 L 715.230469 806.347656 L 728.730469 806.347656 L 728.730469 489.648438 Z M 715.230469 489.648438 "/>
</g>
<g clip-path="url(#clip4)" clip-rule="nonzero">
<path style=" stroke:none;fill-rule:nonzero;fill:rgb(100%,100%,100%);fill-opacity:1;" d="M 410.859375 668.035156 C 410.746094 668.128906 410.625 668.210938 410.507812 668.300781 C 410.398438 668.378906 410.292969 668.464844 410.183594 668.539062 C 410.046875 668.628906 409.910156 668.707031 409.769531 668.789062 C 409.667969 668.851562 409.566406 668.914062 409.457031 668.972656 C 409.320312 669.046875 409.179688 669.109375 409.039062 669.175781 C 408.921875 669.230469 408.808594 669.289062 408.691406 669.335938 C 408.554688 669.394531 408.417969 669.4375 408.28125 669.488281 C 408.152344 669.535156 408.023438 669.585938 407.890625 669.625 C 407.753906 669.667969 407.617188 669.695312 407.476562 669.730469 C 407.339844 669.765625 407.207031 669.804688 407.070312 669.828125 C 406.910156 669.863281 406.75 669.882812 406.585938 669.902344 C 406.46875 669.921875 406.355469 669.941406 406.234375 669.957031 C 405.667969 670.011719 405.09375 670.011719 404.527344 669.957031 C 404.410156 669.941406 404.292969 669.921875 404.175781 669.902344 C 404.011719 669.882812 403.851562 669.863281 403.691406 669.828125 C 403.554688 669.804688 403.417969 669.765625 403.285156 669.730469 C 403.144531 669.695312 403.007812 669.664062 402.871094 669.625 C 402.738281 669.585938 402.609375 669.535156 402.476562 669.488281 C 402.339844 669.4375 402.207031 669.394531 402.070312 669.339844 C 401.949219 669.289062 401.835938 669.230469 401.71875 669.175781 C 401.578125 669.109375 401.441406 669.046875 401.304688 668.976562 C 401.195312 668.917969 401.089844 668.847656 400.980469 668.785156 C 400.847656 668.703125 400.710938 668.628906 400.582031 668.539062 C 400.464844 668.460938 400.355469 668.375 400.242188 668.292969 C 400.128906 668.207031 400.011719 668.128906 399.902344 668.035156 C 399.710938 667.882812 399.535156 667.71875 399.359375 667.546875 C 399.332031 667.519531 399.300781 667.496094 399.269531 667.464844 L 310.085938 578.183594 C 306.714844 574.804688 306.714844 569.332031 310.085938 565.953125 C 313.460938 562.574219 318.929688 562.574219 322.304688 565.953125 L 396.742188 640.472656 L 396.742188 317.144531 C 396.742188 312.371094 400.609375 308.496094 405.378906 308.496094 C 410.152344 308.496094 414.019531 312.371094 414.019531 317.144531 L 414.019531 640.472656 L 488.457031 565.953125 C 491.832031 562.574219 497.300781 562.574219 500.675781 565.953125 C 502.363281 567.640625 503.207031 569.851562 503.207031 572.066406 C 503.207031 574.28125 502.363281 576.492188 500.675781 578.183594 L 411.488281 667.464844 C 411.453125 667.503906 411.410156 667.535156 411.371094 667.574219 C 411.207031 667.734375 411.039062 667.890625 410.859375 668.035156 Z M 410.859375 668.035156 "/>
</g>
</g>
</svg>
