<?xml version="1.0" encoding="UTF-8"?>
<svg xmlns="http://www.w3.org/2000/svg" xmlns:xlink="http://www.w3.org/1999/xlink" width="810pt" height="809.999993pt" viewBox="0 0 810 809.999993" version="1.2">
<defs>
<clipPath id="clip1">
  <path d="M 115 422 L 238 422 L 238 539 L 115 539 Z M 115 422 "/>
</clipPath>
<clipPath id="clip2">
  <path d="M 840.832031 394.632812 L 524.570312 876.941406 L -31.117188 512.5625 L 285.144531 30.257812 Z M 840.832031 394.632812 "/>
</clipPath>
<clipPath id="clip3">
  <path d="M 840.832031 394.632812 L 524.570312 876.941406 L -31.117188 512.5625 L 285.144531 30.257812 Z M 840.832031 394.632812 "/>
</clipPath>
<clipPath id="clip4">
  <path d="M 206 349 L 778 349 L 778 530 L 206 530 Z M 206 349 "/>
</clipPath>
<clipPath id="clip5">
  <path d="M 840.832031 394.632812 L 524.570312 876.941406 L -31.117188 512.5625 L 285.144531 30.257812 Z M 840.832031 394.632812 "/>
</clipPath>
<clipPath id="clip6">
  <path d="M 840.832031 394.632812 L 524.570312 876.941406 L -31.117188 512.5625 L 285.144531 30.257812 Z M 840.832031 394.632812 "/>
</clipPath>
<clipPath id="clip7">
  <path d="M 433 388 L 471 388 L 471 426 L 433 426 Z M 433 388 "/>
</clipPath>
<clipPath id="clip8">
  <path d="M 840.832031 394.632812 L 524.570312 876.941406 L -31.117188 512.5625 L 285.144531 30.257812 Z M 840.832031 394.632812 "/>
</clipPath>
<clipPath id="clip9">
  <path d="M 840.832031 394.632812 L 524.570312 876.941406 L -31.117188 512.5625 L 285.144531 30.257812 Z M 840.832031 394.632812 "/>
</clipPath>
<clipPath id="clip10">
  <path d="M 49 481 L 159 481 L 159 564 L 49 564 Z M 49 481 "/>
</clipPath>
<clipPath id="clip11">
  <path d="M 840.832031 394.632812 L 524.570312 876.941406 L -31.117188 512.5625 L 285.144531 30.257812 Z M 840.832031 394.632812 "/>
</clipPath>
<clipPath id="clip12">
  <path d="M 840.832031 394.632812 L 524.570312 876.941406 L -31.117188 512.5625 L 285.144531 30.257812 Z M 840.832031 394.632812 "/>
</clipPath>
<clipPath id="clip13">
  <path d="M 129 234 L 252 234 L 252 351 L 129 351 Z M 129 234 "/>
</clipPath>
<clipPath id="clip14">
  <path d="M 840.832031 394.632812 L 524.570312 876.941406 L -31.117188 512.5625 L 285.144531 30.257812 Z M 840.832031 394.632812 "/>
</clipPath>
<clipPath id="clip15">
  <path d="M 840.832031 394.632812 L 524.570312 876.941406 L -31.117188 512.5625 L 285.144531 30.257812 Z M 840.832031 394.632812 "/>
</clipPath>
<clipPath id="clip16">
  <path d="M 220 249 L 768 249 L 768 509 L 220 509 Z M 220 249 "/>
</clipPath>
<clipPath id="clip17">
  <path d="M 840.832031 394.632812 L 524.570312 876.941406 L -31.117188 512.5625 L 285.144531 30.257812 Z M 840.832031 394.632812 "/>
</clipPath>
<clipPath id="clip18">
  <path d="M 840.832031 394.632812 L 524.570312 876.941406 L -31.117188 512.5625 L 285.144531 30.257812 Z M 840.832031 394.632812 "/>
</clipPath>
<clipPath id="clip19">
  <path d="M 433 387 L 471 387 L 471 426 L 433 426 Z M 433 387 "/>
</clipPath>
<clipPath id="clip20">
  <path d="M 840.832031 394.632812 L 524.570312 876.941406 L -31.117188 512.5625 L 285.144531 30.257812 Z M 840.832031 394.632812 "/>
</clipPath>
<clipPath id="clip21">
  <path d="M 840.832031 394.632812 L 524.570312 876.941406 L -31.117188 512.5625 L 285.144531 30.257812 Z M 840.832031 394.632812 "/>
</clipPath>
<clipPath id="clip22">
  <path d="M 127 278 L 166 278 L 166 355 L 127 355 Z M 127 278 "/>
</clipPath>
<clipPath id="clip23">
  <path d="M 840.832031 394.632812 L 524.570312 876.941406 L -31.117188 512.5625 L 285.144531 30.257812 Z M 840.832031 394.632812 "/>
</clipPath>
<clipPath id="clip24">
  <path d="M 840.832031 394.632812 L 524.570312 876.941406 L -31.117188 512.5625 L 285.144531 30.257812 Z M 840.832031 394.632812 "/>
</clipPath>
</defs>
<g id="surface1">
<g clip-path="url(#clip1)" clip-rule="nonzero">
<g clip-path="url(#clip2)" clip-rule="nonzero">
<g clip-path="url(#clip3)" clip-rule="nonzero">
<path style=" stroke:none;fill-rule:nonzero;fill:rgb(100%,100%,100%);fill-opacity:1;" d="M 224.296875 465.46875 C 216.621094 441.171875 188.894531 428.203125 162.527344 436.554688 C 136.144531 444.921875 120.953125 471.503906 128.644531 495.8125 C 136.339844 520.113281 164.050781 533.058594 190.417969 524.71875 C 216.800781 516.351562 231.996094 489.769531 224.296875 465.46875 Z M 118.011719 499.171875 C 108.472656 469.011719 126.917969 436.160156 159.160156 425.933594 C 191.398438 415.714844 225.390625 431.933594 234.945312 462.101562 C 244.492188 492.265625 226.019531 525.109375 193.785156 535.339844 C 161.542969 545.554688 127.554688 529.339844 118.011719 499.171875 "/>
</g>
</g>
</g>
<g clip-path="url(#clip4)" clip-rule="nonzero">
<g clip-path="url(#clip5)" clip-rule="nonzero">
<g clip-path="url(#clip6)" clip-rule="nonzero">
<path style=" stroke:none;fill-rule:nonzero;fill:rgb(100%,100%,100%);fill-opacity:1;" d="M 210.644531 431.625 C 210.644531 431.625 247.410156 449.136719 264.511719 444.683594 C 281.621094 440.238281 326.410156 430.171875 335.964844 426.542969 C 349.039062 421.570312 362.886719 412.425781 373.945312 399.3125 C 393.074219 376.613281 742.648438 344.742188 760.785156 349.707031 C 778.929688 354.675781 777.222656 364.195312 777.222656 364.195312 L 499.890625 424.628906 L 445.570312 440.882812 C 445.570312 440.882812 382.351562 444.359375 360.761719 443.890625 C 339.171875 443.421875 285.324219 462.175781 265.5625 476.734375 C 245.792969 491.285156 243.328125 514.378906 206.464844 529.765625 C 206.464844 529.765625 258.953125 470.996094 210.644531 431.625 "/>
</g>
</g>
</g>
<g clip-path="url(#clip7)" clip-rule="nonzero">
<g clip-path="url(#clip8)" clip-rule="nonzero">
<g clip-path="url(#clip9)" clip-rule="nonzero">
<path style=" stroke:none;fill-rule:nonzero;fill:rgb(0%,0%,0%);fill-opacity:1;" d="M 457.875 424.320312 C 467.667969 421.207031 473.074219 410.765625 469.988281 400.972656 C 466.878906 391.1875 456.445312 385.769531 446.660156 388.875 C 436.871094 391.976562 431.453125 402.425781 434.550781 412.203125 C 437.648438 421.988281 448.09375 427.414062 457.875 424.320312 "/>
</g>
</g>
</g>
<g clip-path="url(#clip10)" clip-rule="nonzero">
<g clip-path="url(#clip11)" clip-rule="nonzero">
<g clip-path="url(#clip12)" clip-rule="nonzero">
<path style=" stroke:none;fill-rule:nonzero;fill:rgb(100%,100%,100%);fill-opacity:1;" d="M 116.117188 481.617188 C 116.117188 481.617188 114.710938 489.722656 105.652344 492.46875 C 91.058594 496.886719 70.339844 504.964844 61.550781 517.078125 C 47.285156 536.710938 49.316406 552.878906 49.867188 559.292969 C 50.433594 565.683594 58.324219 564.644531 59.507812 559.148438 C 60.6875 553.660156 69.277344 525.339844 91.414062 519.058594 C 113.546875 512.773438 136.171875 529.746094 158.898438 537.136719 C 158.898438 537.136719 122.890625 513.867188 116.117188 481.617188 "/>
</g>
</g>
</g>
<g clip-path="url(#clip13)" clip-rule="nonzero">
<g clip-path="url(#clip14)" clip-rule="nonzero">
<g clip-path="url(#clip15)" clip-rule="nonzero">
<path style=" stroke:none;fill-rule:nonzero;fill:rgb(100%,100%,100%);fill-opacity:1;" d="M 210.855469 251.117188 C 186.015625 238.941406 156.679688 247.6875 145.457031 270.566406 C 134.242188 293.46875 145.324219 322 170.179688 334.152344 C 195 346.324219 224.347656 337.589844 235.5625 314.691406 C 246.777344 291.808594 235.699219 263.273438 210.855469 251.117188 Z M 215.765625 241.09375 C 246.128906 255.960938 259.503906 291.1875 245.578125 319.605469 C 231.648438 348.011719 195.632812 359.042969 165.273438 344.167969 C 134.90625 329.308594 121.535156 294.074219 135.453125 265.652344 C 149.382812 237.234375 185.398438 226.234375 215.765625 241.09375 "/>
</g>
</g>
</g>
<g clip-path="url(#clip16)" clip-rule="nonzero">
<g clip-path="url(#clip17)" clip-rule="nonzero">
<g clip-path="url(#clip18)" clip-rule="nonzero">
<path style=" stroke:none;fill-rule:nonzero;fill:rgb(100%,100%,100%);fill-opacity:1;" d="M 220.253906 344.667969 C 220.253906 344.667969 255.980469 334.273438 272.242188 341.1875 C 288.488281 348.128906 331.289062 364.695312 340.210938 369.6875 C 352.394531 376.535156 364.746094 387.621094 373.722656 402.222656 C 389.265625 427.480469 730.25 510.640625 748.917969 508.410156 C 767.601562 506.179688 767.335938 496.5 767.335938 496.5 L 502.039062 395.785156 L 450.738281 371.679688 C 450.738281 371.679688 388.734375 358.910156 367.300781 356.191406 C 345.886719 353.457031 295.425781 326.976562 278.03125 309.667969 C 260.652344 292.355469 262.9375 270.179688 228.761719 249.53125 C 228.761719 249.53125 273.863281 312.859375 220.253906 344.667969 "/>
</g>
</g>
</g>
<g clip-path="url(#clip19)" clip-rule="nonzero">
<g clip-path="url(#clip20)" clip-rule="nonzero">
<g clip-path="url(#clip21)" clip-rule="nonzero">
<path style=" stroke:none;fill-rule:nonzero;fill:rgb(0%,0%,0%);fill-opacity:1;" d="M 460.433594 389.886719 C 469.660156 394.414062 473.46875 405.546875 468.953125 414.757812 C 464.433594 424 453.304688 427.796875 444.089844 423.277344 C 434.867188 418.773438 431.0625 407.636719 435.574219 398.417969 C 440.097656 389.191406 451.222656 385.390625 460.433594 389.886719 "/>
</g>
</g>
</g>
<g clip-path="url(#clip22)" clip-rule="nonzero">
<g clip-path="url(#clip23)" clip-rule="nonzero">
<g clip-path="url(#clip24)" clip-rule="nonzero">
<path style=" stroke:none;fill-rule:nonzero;fill:rgb(100%,100%,100%);fill-opacity:1;" d="M 131.050781 278.902344 C 131.050781 278.902344 128.601562 338.628906 127.535156 350.679688 C 126.46875 362.710938 144.40625 338.050781 165.273438 344.167969 C 165.273438 344.167969 143.488281 325.242188 138.359375 314.628906 C 133.246094 304.023438 131.050781 278.902344 131.050781 278.902344 "/>
</g>
</g>
</g>
</g>
</svg>
