<?xml version="1.0" encoding="UTF-8"?>
<svg xmlns="http://www.w3.org/2000/svg" xmlns:xlink="http://www.w3.org/1999/xlink" width="810pt" height="809.999993pt" viewBox="0 0 810 809.999993" version="1.2">
<defs>
<clipPath id="clip1">
  <path d="M 31 280 L 780.484375 280 L 780.484375 532 L 31 532 Z M 31 280 "/>
</clipPath>
</defs>
<g id="surface1">
<g clip-path="url(#clip1)" clip-rule="nonzero">
<path style=" stroke:none;fill-rule:evenodd;fill:rgb(27.839661%,25.878906%,25.878906%);fill-opacity:1;" d="M 222.632812 479.929688 C 235.800781 467.550781 256.246094 459.792969 272.671875 460.710938 C 291.777344 461.773438 300.839844 469.246094 307.523438 468.679688 C 311.59375 468.335938 335.535156 445.699219 363.496094 432.214844 C 425.933594 449.761719 693.992188 441.34375 780.398438 416.382812 L 780.386719 416.382812 L 780.398438 416.382812 C 720.113281 406.238281 622.148438 398.128906 534.019531 394.839844 C 494.734375 393.371094 442.792969 389.90625 404.535156 392.414062 C 394.628906 393.0625 377.511719 394.695312 363.546875 401.578125 C 359.195312 403.726562 355.492188 405.664062 352.257812 407.484375 C 303.585938 393.46875 252.292969 367.175781 222.929688 336.695312 C 219.640625 312.089844 203.578125 290.941406 171.460938 282.617188 C 139.339844 274.292969 99.457031 289.578125 91.378906 323.441406 C 84.523438 349.980469 94.023438 366.515625 110.664062 381.535156 C 114.988281 384.695312 118.589844 387.375 122.199219 389.683594 C 129.417969 394.332031 130.203125 398.410156 129.992188 400.070312 C 129.605469 403.089844 129.4375 405.898438 129.375 407.75 C 129.121094 415.136719 140.429688 416.695312 141.875 409.496094 C 142.695312 405.402344 147.871094 401.445312 151.921875 400.554688 C 155.527344 399.761719 159.746094 399.21875 161.90625 398.769531 L 161.914062 398.765625 C 180.613281 396.8125 203.746094 388.917969 213.871094 374.308594 C 234.09375 371.253906 289.238281 397.273438 322.003906 414.523438 C 326.386719 416.828125 330.207031 418.777344 333.5625 420.429688 C 327.953125 425.214844 322.339844 430.699219 312.992188 438.601562 C 301.421875 448.382812 296.695312 446.183594 274.433594 445.265625 C 254.074219 443.539062 230.640625 441.238281 203.535156 428.664062 C 188.597656 414.851562 166.007812 408.21875 142.707031 412.828125 C 113.925781 418.527344 92.660156 439.683594 88.113281 464.230469 C 86.75 471.578125 81.976562 476.195312 74.375 478.285156 C 50.828125 484.757812 40.152344 499.671875 34.757812 507.308594 C 33.644531 508.882812 32.855469 510.128906 32.324219 511.125 C 29.816406 515.804688 35.511719 519.78125 38.71875 515.414062 C 39.269531 514.667969 39.953125 513.71875 40.863281 512.546875 C 52.730469 497.300781 59.863281 492.820312 74.757812 488.574219 C 81.441406 486.671875 89.546875 490.980469 92.324219 496.855469 C 104.066406 521.707031 134.28125 536.039062 165.792969 529.800781 C 191.367188 524.738281 211.003906 507.472656 218.257812 486.46875 C 219.5625 482.691406 219.59375 482.785156 222.632812 479.929688 Z M 210.140625 354.222656 C 203.367188 380.4375 173.878906 395.472656 144.277344 387.800781 C 114.679688 380.128906 96.175781 352.65625 102.949219 326.441406 C 109.722656 300.226562 139.210938 285.191406 168.8125 292.863281 C 198.410156 300.535156 216.914062 328.007812 210.140625 354.222656 Z M 208.5625 460.5625 C 213.804688 487.128906 193.738281 513.480469 163.742188 519.417969 C 133.75 525.355469 105.183594 508.632812 99.941406 482.066406 C 94.699219 455.5 114.761719 429.148438 144.757812 423.210938 C 174.753906 417.273438 203.316406 434 208.5625 460.5625 Z M 208.5625 460.5625 "/>
</g>
<path style=" stroke:none;fill-rule:evenodd;fill:rgb(100%,100%,100%);fill-opacity:1;" d="M 405.253906 415.1875 C 405.253906 421.019531 410.003906 425.773438 415.824219 425.773438 C 421.640625 425.773438 426.390625 421.019531 426.390625 415.1875 C 426.390625 409.359375 421.640625 404.605469 415.824219 404.605469 C 410.003906 404.605469 405.253906 409.359375 405.253906 415.1875 Z M 405.253906 415.1875 "/>
</g>
</svg>
